<?xml version="1.0" encoding="UTF-8"?>
<svg width="625px" height="537px" viewBox="0 0 625 537" version="1.1" xmlns="http://www.w3.org/2000/svg" xmlns:xlink="http://www.w3.org/1999/xlink">
    <!-- Generator: Sketch 49.3 (51167) - http://www.bohemiancoding.com/sketch -->
    <title>Group 30</title>
    <desc>Created with Sketch.</desc>
    <defs>
        <linearGradient x1="100%" y1="0%" x2="0%" y2="100%" id="linearGradient-1">
            <stop stop-color="#9E83F0" offset="0%"></stop>
            <stop stop-color="#F778BE" offset="100%"></stop>
        </linearGradient>
        <linearGradient x1="-191.334135%" y1="-304.792302%" x2="165.889423%" y2="314.052973%" id="linearGradient-2">
            <stop stop-color="#9E83F0" offset="0%"></stop>
            <stop stop-color="#F778BE" offset="100%"></stop>
        </linearGradient>
        <path d="M89,420 L349,420 L349,420 C349,439.882251 332.882251,456 313,456 L89,456 L89,420 Z" id="path-3"></path>
        <path d="M33.5759409,20 L403.575941,20 C411.860212,20 419.247514,26.7157288 420.075941,35 L457.075941,405 C457.904368,413.284271 451.860212,420 443.575941,420 L73.5759409,420 C65.2916697,420 57.904368,413.284271 57.0759409,405 L20.0759409,35 C19.2475138,26.7157288 25.2916697,20 33.5759409,20 Z" id="path-4"></path>
        <filter x="-8.1%" y="-6.9%" width="116.2%" height="117.8%" filterUnits="objectBoundingBox" id="filter-5">
            <feOffset dx="0" dy="8" in="SourceAlpha" result="shadowOffsetOuter1"></feOffset>
            <feGaussianBlur stdDeviation="10.5" in="shadowOffsetOuter1" result="shadowBlurOuter1"></feGaussianBlur>
            <feColorMatrix values="0 0 0 0 0   0 0 0 0 0   0 0 0 0 0  0 0 0 0.0810122283 0" type="matrix" in="shadowBlurOuter1"></feColorMatrix>
        </filter>
        <path d="M53.5759409,0 L423.575941,0 C431.860212,-1.52179594e-15 439.415407,6.71572875 440.450941,15 L443.575941,40 L43.5759409,40 L40.4509409,15 C39.415407,6.71572875 45.2916697,1.52179594e-15 53.5759409,0 Z" id="path-6"></path>
        <filter x="-8.8%" y="-68.8%" width="117.6%" height="277.5%" filterUnits="objectBoundingBox" id="filter-7">
            <feOffset dx="0" dy="8" in="SourceAlpha" result="shadowOffsetOuter1"></feOffset>
            <feGaussianBlur stdDeviation="10.5" in="shadowOffsetOuter1" result="shadowBlurOuter1"></feGaussianBlur>
            <feColorMatrix values="0 0 0 0 0   0 0 0 0 0   0 0 0 0 0  0 0 0 0.0810122283 0" type="matrix" in="shadowBlurOuter1"></feColorMatrix>
        </filter>
        <linearGradient x1="83.7997231%" y1="50%" x2="15.3958664%" y2="84.5211383%" id="linearGradient-8">
            <stop stop-color="#FF72A5" offset="0%"></stop>
            <stop stop-color="#FF487A" offset="100%"></stop>
        </linearGradient>
        <linearGradient x1="88.8197543%" y1="9.80061939%" x2="-6.83226673%" y2="100%" id="linearGradient-9">
            <stop stop-color="#9E83F0" offset="0%"></stop>
            <stop stop-color="#78AEF7" offset="100%"></stop>
        </linearGradient>
        <linearGradient x1="80.5449309%" y1="10.526158%" x2="-33.9464714%" y2="136.578196%" id="linearGradient-10">
            <stop stop-color="#C6FB81" offset="0%"></stop>
            <stop stop-color="#21F46A" offset="100%"></stop>
        </linearGradient>
        <path d="M414,420 L414.176069,420 C414.176069,439.882251 398.05832,456 378.176069,456 C291.450713,456 204.725356,456 118,456 C141.780057,456 153.836388,444.333333 154.168992,421 L154,421 L154,98 C154,95.2385763 156.238576,93 159,93 L409,93 C411.761424,93 414,95.2385763 414,98 L414,420 Z" id="path-11"></path>
        <filter x="-6.4%" y="-3.9%" width="112.8%" height="110.5%" filterUnits="objectBoundingBox" id="filter-12">
            <feOffset dx="0" dy="5" in="SourceAlpha" result="shadowOffsetOuter1"></feOffset>
            <feGaussianBlur stdDeviation="5.5" in="shadowOffsetOuter1" result="shadowBlurOuter1"></feGaussianBlur>
            <feColorMatrix values="0 0 0 0 0   0 0 0 0 0   0 0 0 0 0  0 0 0 0.277541893 0" type="matrix" in="shadowBlurOuter1"></feColorMatrix>
        </filter>
        <rect id="path-13" x="328" y="183" width="108" height="60" rx="7.5"></rect>
        <filter x="-17.6%" y="-23.3%" width="135.2%" height="163.3%" filterUnits="objectBoundingBox" id="filter-14">
            <feOffset dx="0" dy="5" in="SourceAlpha" result="shadowOffsetOuter1"></feOffset>
            <feGaussianBlur stdDeviation="5.5" in="shadowOffsetOuter1" result="shadowBlurOuter1"></feGaussianBlur>
            <feColorMatrix values="0 0 0 0 0   0 0 0 0 0   0 0 0 0 0  0 0 0 0.080559 0" type="matrix" in="shadowBlurOuter1"></feColorMatrix>
        </filter>
        <linearGradient x1="-126.635742%" y1="-66.7724609%" x2="134.326172%" y2="218.774414%" id="linearGradient-15">
            <stop stop-color="#9E83F0" offset="0%"></stop>
            <stop stop-color="#F778BE" offset="100%"></stop>
        </linearGradient>
        <path d="M10,110 L110,110 C115.522847,110 120,114.477153 120,120 L120,180 C120,185.522847 115.522847,190 110,190 L10,190 C4.4771525,190 0,185.522847 0,180 L1.77635684e-15,120 C1.77635684e-15,114.477153 4.4771525,110 10,110 Z" id="path-16"></path>
        <filter x="-15.8%" y="-17.5%" width="131.7%" height="147.5%" filterUnits="objectBoundingBox" id="filter-17">
            <feOffset dx="0" dy="5" in="SourceAlpha" result="shadowOffsetOuter1"></feOffset>
            <feGaussianBlur stdDeviation="5.5" in="shadowOffsetOuter1" result="shadowBlurOuter1"></feGaussianBlur>
            <feColorMatrix values="0 0 0 0 0   0 0 0 0 0   0 0 0 0 0  0 0 0 0.080559 0" type="matrix" in="shadowBlurOuter1"></feColorMatrix>
        </filter>
        <rect id="path-18" x="328" y="330" width="120" height="80" rx="10"></rect>
        <filter x="-15.8%" y="-17.5%" width="131.7%" height="147.5%" filterUnits="objectBoundingBox" id="filter-19">
            <feOffset dx="0" dy="5" in="SourceAlpha" result="shadowOffsetOuter1"></feOffset>
            <feGaussianBlur stdDeviation="5.5" in="shadowOffsetOuter1" result="shadowBlurOuter1"></feGaussianBlur>
            <feColorMatrix values="0 0 0 0 0   0 0 0 0 0   0 0 0 0 0  0 0 0 0.080559 0" type="matrix" in="shadowBlurOuter1"></feColorMatrix>
        </filter>
        <rect id="path-20" x="30" y="319" width="90" height="60" rx="7.5"></rect>
        <filter x="-21.1%" y="-23.3%" width="142.2%" height="163.3%" filterUnits="objectBoundingBox" id="filter-21">
            <feOffset dx="0" dy="5" in="SourceAlpha" result="shadowOffsetOuter1"></feOffset>
            <feGaussianBlur stdDeviation="5.5" in="shadowOffsetOuter1" result="shadowBlurOuter1"></feGaussianBlur>
            <feColorMatrix values="0 0 0 0 0   0 0 0 0 0   0 0 0 0 0  0 0 0 0.080559 0" type="matrix" in="shadowBlurOuter1"></feColorMatrix>
        </filter>
        <rect id="path-22" x="17" y="220" width="103" height="69" rx="8.625"></rect>
        <filter x="-18.4%" y="-20.3%" width="136.9%" height="155.1%" filterUnits="objectBoundingBox" id="filter-23">
            <feOffset dx="0" dy="5" in="SourceAlpha" result="shadowOffsetOuter1"></feOffset>
            <feGaussianBlur stdDeviation="5.5" in="shadowOffsetOuter1" result="shadowBlurOuter1"></feGaussianBlur>
            <feColorMatrix values="0 0 0 0 0   0 0 0 0 0   0 0 0 0 0  0 0 0 0.080559 0" type="matrix" in="shadowBlurOuter1"></feColorMatrix>
        </filter>
        <path d="M102.281223,190.17408 L102.281223,198.531223 C102.281223,199.35965 101.60965,200.031223 100.781223,200.031223 L99.2812229,200.031223 C98.4527958,200.031223 97.7812229,199.35965 97.7812229,198.531223 L97.7812229,190.17408 L89.5312229,192.531223 L100.031223,170.031223 L110.531223,192.531223 L102.281223,190.17408 Z" id="path-24"></path>
        <filter x="-90.5%" y="-46.7%" width="281.0%" height="226.7%" filterUnits="objectBoundingBox" id="filter-25">
            <feOffset dx="0" dy="5" in="SourceAlpha" result="shadowOffsetOuter1"></feOffset>
            <feGaussianBlur stdDeviation="5.5" in="shadowOffsetOuter1" result="shadowBlurOuter1"></feGaussianBlur>
            <feColorMatrix values="0 0 0 0 0   0 0 0 0 0   0 0 0 0 0  0 0 0 0.080559 0" type="matrix" in="shadowBlurOuter1"></feColorMatrix>
        </filter>
    </defs>
    <g id="Home-Page" stroke="none" stroke-width="1" fill="none" fill-rule="evenodd">
        <g id="Wuilt---Home-Page" transform="translate(0.000000, -1705.000000)">
            <g id="No-Drag-Section" transform="translate(0.000000, 1614.000000)">
                <g id="Group-30" transform="translate(-70.000000, 91.000000)">
                    <path d="M290,470.339844 C354.690198,544.289063 685.625,461.184155 580,291.559155 C474.375,121.934155 397.926964,15.1650244 290,1.55915482 C155.273437,-15.4252202 220.419589,111.314476 117.640625,140.76228 C28.53125,166.29353 0,227.00102 0,291.559155 C0,451.721732 225.309802,396.390625 290,470.339844 Z" id="Oval-Copy" fill="url(#linearGradient-1)"></path>
                    <g id="Group-5" transform="translate(218.000000, 65.000000)">
                        <path d="M129,419 L389,419 L389,419 C389,438.882251 372.882251,455 353,455 L129,455 L129,419 Z" id="Rectangle-7" fill="#23C5A2"></path>
                        <g id="Rectangle-7-Copy" transform="translate(219.000000, 438.000000) scale(-1, 1) translate(-219.000000, -438.000000) ">
                            <use fill="url(#linearGradient-2)" xlink:href="#path-3"></use>
                            <use fill-opacity="0.180763134" fill="#000000" xlink:href="#path-3"></use>
                        </g>
                        <path d="M13.5759409,40 L383.575941,40 C391.860212,40 399.247514,46.7157288 400.075941,55 L437.075941,425 C437.904368,433.284271 431.860212,440 423.575941,440 L53.5759409,440 C45.2916697,440 37.904368,433.284271 37.0759409,425 L0.0759409179,55 C-0.752486207,46.7157288 5.29166967,40 13.5759409,40 Z" id="Rectangle-10-Copy-3" fill-opacity="0.0987601902" fill="#000000" opacity="0.602977808"></path>
                        <g id="Rectangle-10-Copy-4">
                            <use fill="black" fill-opacity="1" filter="url(#filter-5)" xlink:href="#path-4"></use>
                            <use fill="#FEFEFE" fill-rule="evenodd" xlink:href="#path-4"></use>
                        </g>
                        <g id="Rectangle-10-Copy-5">
                            <use fill="black" fill-opacity="1" filter="url(#filter-7)" xlink:href="#path-6"></use>
                            <use fill="#FFFFFF" fill-rule="evenodd" xlink:href="#path-6"></use>
                        </g>
                        <g id="Group-18" transform="translate(73.000000, 13.000000)">
                            <circle id="Oval-4" fill="url(#linearGradient-8)" cx="7" cy="7" r="7"></circle>
                            <circle id="Oval-4-Copy" fill="url(#linearGradient-9)" cx="31" cy="7" r="7"></circle>
                            <circle id="Oval-4-Copy-2" fill="url(#linearGradient-10)" cx="55" cy="7" r="7"></circle>
                        </g>
                        <g id="Combined-Shape-Copy-3">
                            <use fill="black" fill-opacity="1" filter="url(#filter-12)" xlink:href="#path-11"></use>
                            <use fill="url(#linearGradient-2)" fill-rule="evenodd" xlink:href="#path-11"></use>
                        </g>
                        <g id="Group-52" transform="translate(154.000000, 92.000000)" fill="#FFFFFF">
                            <path d="M5,0 L255,0 C257.761424,-5.07265313e-16 260,2.23857625 260,5 L260,82 L0,82 L0,5 C-3.38176876e-16,2.23857625 2.23857625,5.07265313e-16 5,0 Z" id="Rectangle-10-Copy-6" fill-opacity="0.155768795"></path>
                            <g id="Group-51" transform="translate(30.000000, 19.000000)" opacity="0.611016757">
                                <rect id="Rectangle-10-Copy-11" x="0" y="0" width="122" height="8" rx="4"></rect>
                                <rect id="Rectangle-10-Copy-16" x="0" y="18" width="122" height="8" rx="4"></rect>
                                <rect id="Rectangle-10-Copy-17" x="0" y="36" width="62" height="8" rx="4"></rect>
                            </g>
                        </g>
                        <g id="Group-49" transform="translate(185.000000, 275.000000)" fill="#FFFFFF" opacity="0.611016757">
                            <rect id="Rectangle-10-Copy-8" x="78" y="0" width="122" height="8" rx="4"></rect>
                            <rect id="Rectangle-10-Copy-9" x="78" y="18" width="122" height="8" rx="4"></rect>
                            <rect id="Rectangle-10-Copy-10" x="78" y="36" width="62" height="8" rx="4"></rect>
                            <rect id="Rectangle-10-Copy-7" x="0" y="0" width="58" height="51" rx="15"></rect>
                        </g>
                        <g id="Group-48" transform="translate(184.000000, 356.000000)" fill="#FFFFFF" opacity="0.611016757">
                            <rect id="Rectangle-10-Copy-13" x="0" y="0" width="122" height="8" rx="4"></rect>
                            <rect id="Rectangle-10-Copy-14" x="0" y="18" width="122" height="8" rx="4"></rect>
                            <rect id="Rectangle-10-Copy-15" x="60" y="36" width="62" height="8" rx="4"></rect>
                        </g>
                        <g id="Group-50" transform="translate(184.000000, 204.000000)" fill="#FFFFFF">
                            <rect id="Rectangle-10-Copy-18" opacity="0.611016757" x="0" y="26" width="50" height="8" rx="4"></rect>
                            <rect id="Rectangle-10-Copy-19" opacity="0.611016757" x="75" y="26" width="50" height="8" rx="4"></rect>
                            <rect id="Rectangle-10-Copy-20" opacity="0.25" x="146" y="26" width="50" height="8" rx="4"></rect>
                            <circle id="Oval-5-Copy-3" opacity="0.611016757" cx="8" cy="8" r="8"></circle>
                            <circle id="Oval-5-Copy" opacity="0.611016757" cx="83" cy="8" r="8"></circle>
                            <circle id="Oval-5-Copy-2" opacity="0.25" cx="154" cy="8" r="8"></circle>
                        </g>
                        <g id="Rectangle-11">
                            <use fill="black" fill-opacity="1" filter="url(#filter-14)" xlink:href="#path-13"></use>
                            <use fill="#FFFFFF" fill-rule="evenodd" xlink:href="#path-13"></use>
                        </g>
                        <g id="Group-43" opacity="0.700407609" transform="translate(349.000000, 202.000000)" fill="url(#linearGradient-15)">
                            <path d="M17.4099026,18.9852814 C17.4099026,14.2989899 13.6109127,10.5 8.9246212,10.5 C4.2383297,10.5 0.439339828,14.2989899 0.439339828,18.9852814 C0.439339828,23.6715729 17.4099026,23.6715729 17.4099026,18.9852814 Z" id="Oval-2-Copy-2"></path>
                            <circle id="Oval-2-Copy" cx="9" cy="4.5" r="4.5"></circle>
                        </g>
                        <g id="Group-44" transform="translate(373.000000, 202.000000)" fill="url(#linearGradient-15)">
                            <rect id="Rectangle-5-Copy-3" x="0" y="0" width="42" height="4.5" rx="2.25"></rect>
                            <rect id="Rectangle-5-Copy-4" x="0" y="9" width="42" height="4.5" rx="2.25"></rect>
                            <rect id="Rectangle-5-Copy-5" x="0" y="18" width="21" height="4.5" rx="2.25"></rect>
                        </g>
                        <g id="Rectangle-11">
                            <use fill="black" fill-opacity="1" filter="url(#filter-17)" xlink:href="#path-16"></use>
                            <use fill="#FFFFFF" fill-rule="evenodd" xlink:href="#path-16"></use>
                        </g>
                        <circle id="Oval-2-Copy-3" fill="url(#linearGradient-15)" opacity="0.7" cx="28" cy="144" r="8"></circle>
                        <rect id="Rectangle-5" fill="url(#linearGradient-15)" x="42" y="136" width="56" height="6" rx="3"></rect>
                        <rect id="Rectangle-5-Copy" fill="url(#linearGradient-15)" x="42" y="148" width="56" height="6" rx="3"></rect>
                        <rect id="Rectangle-5-Copy-2" fill="url(#linearGradient-15)" x="42" y="160" width="28" height="6" rx="3"></rect>
                        <g id="Rectangle-11">
                            <use fill="black" fill-opacity="1" filter="url(#filter-19)" xlink:href="#path-18"></use>
                            <use fill="#FFFFFF" fill-rule="evenodd" xlink:href="#path-18"></use>
                        </g>
                        <polygon id="Path-11" fill="url(#linearGradient-15)" points="378 352 378 388 402 370"></polygon>
                        <g id="Rectangle-11">
                            <use fill="black" fill-opacity="1" filter="url(#filter-21)" xlink:href="#path-20"></use>
                            <use fill="#FFFFFF" fill-rule="evenodd" xlink:href="#path-20"></use>
                        </g>
                        <polygon id="Path-12-Copy-2" fill="url(#linearGradient-15)" opacity="0.5" points="72 364 102 364 87 348"></polygon>
                        <polygon id="Path-12-Copy-3" fill="url(#linearGradient-15)" points="48 364 86 364 67 343"></polygon>
                        <circle id="Oval-2" fill="url(#linearGradient-15)" cx="99" cy="338" r="4"></circle>
                        <g id="Rectangle-11">
                            <use fill="black" fill-opacity="1" filter="url(#filter-23)" xlink:href="#path-22"></use>
                            <use fill="#FFFFFF" fill-rule="evenodd" xlink:href="#path-22"></use>
                        </g>
                        <rect id="Rectangle-11-Copy-3" fill="url(#linearGradient-15)" opacity="0.5" x="30.7333333" y="244.15" width="20.6" height="20.7" rx="1.725"></rect>
                        <rect id="Rectangle-11-Copy" fill="url(#linearGradient-15)" x="58.2" y="244.15" width="20.6" height="20.7" rx="1.725"></rect>
                        <rect id="Rectangle-11-Copy-2" fill="url(#linearGradient-15)" opacity="0.5" x="85.6666667" y="244.15" width="20.6" height="20.7" rx="1.725"></rect>
                        <g id="Combined-Shape" transform="translate(100.031223, 185.031223) rotate(-45.000000) translate(-100.031223, -185.031223) ">
                            <use fill="black" fill-opacity="1" filter="url(#filter-25)" xlink:href="#path-24"></use>
                            <use fill="url(#linearGradient-1)" fill-rule="evenodd" xlink:href="#path-24"></use>
                        </g>
                    </g>
                </g>
            </g>
        </g>
    </g>
</svg>