<?xml version="1.0" encoding="UTF-8"?>
<svg width="636px" height="488px" viewBox="0 0 636 488" version="1.1" xmlns="http://www.w3.org/2000/svg" xmlns:xlink="http://www.w3.org/1999/xlink">
    <!-- Generator: Sketch 49.3 (51167) - http://www.bohemiancoding.com/sketch -->
    <title>Group 27</title>
    <desc>Created with Sketch.</desc>
    <defs>
        <linearGradient x1="100%" y1="0%" x2="0%" y2="100%" id="linearGradient-1">
            <stop stop-color="#FFCF68" offset="0%"></stop>
            <stop stop-color="#FF8667" offset="100%"></stop>
        </linearGradient>
        <path d="M76.9983766,18 L404.003287,18 C411.324901,18 417.853777,23.9353413 418.585938,31.2569558 L451.286429,358.261866 C452.01859,365.58348 446.676783,371.518822 439.355169,371.518822 L112.350259,371.518822 C105.028644,371.518822 98.4997688,365.58348 97.7676074,358.261866 L65.0671164,31.2569558 C64.3349549,23.9353413 69.6767621,18 76.9983766,18 Z" id="path-2"></path>
        <filter x="-9.2%" y="-7.8%" width="118.4%" height="120.1%" filterUnits="objectBoundingBox" id="filter-3">
            <feOffset dx="0" dy="8" in="SourceAlpha" result="shadowOffsetOuter1"></feOffset>
            <feGaussianBlur stdDeviation="10.5" in="shadowOffsetOuter1" result="shadowBlurOuter1"></feGaussianBlur>
            <feColorMatrix values="0 0 0 0 0   0 0 0 0 0   0 0 0 0 0  0 0 0 0.0810122283 0" type="matrix" in="shadowBlurOuter1"></feColorMatrix>
        </filter>
        <path d="M5.99832446,-7.39557099e-31 L200.431586,2.66453526e-15 C202.958366,2.20037339e-15 205.088024,1.88516393 205.394638,4.39327129 L215.174568,84.3932713 C215.509655,87.1342889 213.559263,89.6279645 210.818245,89.9630515 C210.616938,89.987661 210.414321,90 210.211516,90 L15.7761022,90 C13.2492722,90 11.1195882,88.1147628 10.8130346,85.6065971 L1.03525687,5.60659715 C0.700242511,2.86557061 2.65070076,0.371946766 5.39172731,0.0369324105 C5.59299047,0.012333579 5.7955636,3.72465651e-17 5.99832446,0 Z" id="path-4"></path>
        <filter x="-8.9%" y="-15.6%" width="117.7%" height="142.2%" filterUnits="objectBoundingBox" id="filter-6">
            <feOffset dx="0" dy="5" in="SourceAlpha" result="shadowOffsetOuter1"></feOffset>
            <feGaussianBlur stdDeviation="5.5" in="shadowOffsetOuter1" result="shadowBlurOuter1"></feGaussianBlur>
            <feColorMatrix values="0 0 0 0 0   0 0 0 0 0   0 0 0 0 0  0 0 0 0.0805593297 0" type="matrix" in="shadowBlurOuter1"></feColorMatrix>
        </filter>
        <path d="M13,0 C21.2842712,0 29.0596272,6.71572875 30.3667436,15 C31.67386,23.2842712 26.0177585,30 17.7334872,30 C9.44921597,30 1.67386001,23.2842712 0.366743608,15 C-0.940372793,6.71572875 4.71572875,0 13,0 Z" id="path-7"></path>
        <filter x="-83.9%" y="-65.0%" width="267.9%" height="270.0%" filterUnits="objectBoundingBox" id="filter-8">
            <feOffset dx="0" dy="6" in="SourceAlpha" result="shadowOffsetOuter1"></feOffset>
            <feGaussianBlur stdDeviation="7.5" in="shadowOffsetOuter1" result="shadowBlurOuter1"></feGaussianBlur>
            <feColorMatrix values="0 0 0 0 0.849649   0 0 0 0 0.849649   0 0 0 0 0.849649  0 0 0 0.5 0" type="matrix" in="shadowBlurOuter1"></feColorMatrix>
        </filter>
        <path d="M12.809734,0 C21.0940052,-1.52179594e-15 29.1954722,6.71572875 30.904867,15 C32.6142617,23.2842712 27.2842712,30 19,30 C10.7157288,30 2.61426174,23.2842712 0.904866977,15 C-0.804527791,6.71572875 4.52546271,1.52179594e-15 12.809734,0 Z" id="path-9"></path>
        <filter x="-83.2%" y="-65.0%" width="266.5%" height="270.0%" filterUnits="objectBoundingBox" id="filter-10">
            <feOffset dx="0" dy="6" in="SourceAlpha" result="shadowOffsetOuter1"></feOffset>
            <feGaussianBlur stdDeviation="7.5" in="shadowOffsetOuter1" result="shadowBlurOuter1"></feGaussianBlur>
            <feColorMatrix values="0 0 0 0 0.849649   0 0 0 0 0.849649   0 0 0 0 0.849649  0 0 0 0.5 0" type="matrix" in="shadowBlurOuter1"></feColorMatrix>
        </filter>
        <path d="M3.59888185,1.13340458e-14 L143.7796,1.77635684e-15 C145.599213,1.4420993e-15 147.132737,1.35779963 147.353103,3.16401989 L154.40491,60.9640199 C154.645695,62.9376109 153.240978,64.7327175 151.267387,64.9735027 C151.122731,64.9911513 150.977136,65 150.831407,65 L10.6485381,65 C8.82887452,65 7.29532467,63.6421274 7.07501947,61.8358491 L0.0253631971,4.0358491 C-0.215349616,2.06224925 1.18943289,0.267194161 3.16303275,0.0264813476 C3.30764612,0.0088433787 3.45319682,1.33494382e-14 3.59888185,1.33226763e-14 Z" id="path-11"></path>
        <filter x="-12.3%" y="-21.5%" width="124.6%" height="158.5%" filterUnits="objectBoundingBox" id="filter-13">
            <feOffset dx="0" dy="5" in="SourceAlpha" result="shadowOffsetOuter1"></feOffset>
            <feGaussianBlur stdDeviation="5.5" in="shadowOffsetOuter1" result="shadowBlurOuter1"></feGaussianBlur>
            <feColorMatrix values="0 0 0 0 0   0 0 0 0 0   0 0 0 0 0  0 0 0 0.0805593297 0" type="matrix" in="shadowBlurOuter1"></feColorMatrix>
        </filter>
        <path d="M3.59888185,1.13340458e-14 L143.7796,1.77635684e-15 C145.599213,1.4420993e-15 147.132737,1.35779963 147.353103,3.16401989 L154.40491,60.9640199 C154.645695,62.9376109 153.240978,64.7327175 151.267387,64.9735027 C151.122731,64.9911513 150.977136,65 150.831407,65 L10.6485381,65 C8.82887452,65 7.29532467,63.6421274 7.07501947,61.8358491 L0.0253631971,4.0358491 C-0.215349616,2.06224925 1.18943289,0.267194161 3.16303275,0.0264813476 C3.30764612,0.0088433787 3.45319682,1.33494382e-14 3.59888185,1.33226763e-14 Z" id="path-14"></path>
        <filter x="-12.3%" y="-21.5%" width="124.6%" height="158.5%" filterUnits="objectBoundingBox" id="filter-16">
            <feOffset dx="0" dy="5" in="SourceAlpha" result="shadowOffsetOuter1"></feOffset>
            <feGaussianBlur stdDeviation="5.5" in="shadowOffsetOuter1" result="shadowBlurOuter1"></feGaussianBlur>
            <feColorMatrix values="0 0 0 0 0   0 0 0 0 0   0 0 0 0 0  0 0 0 0.0805593297 0" type="matrix" in="shadowBlurOuter1"></feColorMatrix>
        </filter>
        <linearGradient x1="100%" y1="0%" x2="-24.6773295%" y2="133.227111%" id="linearGradient-17">
            <stop stop-color="#FFCF68" offset="0%"></stop>
            <stop stop-color="#FF8667" offset="100%"></stop>
        </linearGradient>
        <path d="M5.09563543,1.05635853e-14 L357.049254,8.8817842e-15 C359.624668,8.40868833e-15 361.778787,1.95627275 362.02614,4.51978085 L372.061089,108.519781 C372.326307,111.268439 370.31308,113.711668 367.564422,113.976886 C367.404813,113.992286 367.244554,114 367.084203,114 L15.1276628,114 C12.5521956,114 10.3980503,112.043649 10.1507639,109.480081 L0.118736541,5.48008064 C-0.146404672,2.73141528 1.86688944,0.288242321 4.6155548,0.0231011078 C4.77511883,0.0077092739 4.93533076,1.15757669e-14 5.09563543,1.15463195e-14 Z" id="path-18"></path>
        <filter x="-5.1%" y="-12.3%" width="110.2%" height="133.3%" filterUnits="objectBoundingBox" id="filter-19">
            <feOffset dx="0" dy="5" in="SourceAlpha" result="shadowOffsetOuter1"></feOffset>
            <feGaussianBlur stdDeviation="5.5" in="shadowOffsetOuter1" result="shadowBlurOuter1"></feGaussianBlur>
            <feColorMatrix values="0 0 0 0 0   0 0 0 0 0   0 0 0 0 0  0 0 0 0.080559 0" type="matrix" in="shadowBlurOuter1"></feColorMatrix>
        </filter>
        <path d="M6.79748039,1.78726299e-31 L81.2778131,4.4408921e-15 C84.5146192,3.84630046e-15 87.2134652,2.47619674 87.4914691,5.70104212 L91.4161757,51.2276379 C91.7120125,54.6593454 89.1698871,57.6811171 85.7381796,57.9769539 C85.5600392,57.9923109 85.3813207,58 85.2025196,58 L10.7221869,58 C7.48538079,58 4.78653476,55.5238033 4.50853085,52.2989579 L0.583824322,6.77236213 C0.287987469,3.34065464 2.8301129,0.318882908 6.26182039,0.0230460552 C6.43996082,0.00768912167 6.61867925,9.21023656e-16 6.79748039,8.8817842e-16 Z" id="path-20"></path>
        <filter x="-12.1%" y="-6.9%" width="116.5%" height="127.6%" filterUnits="objectBoundingBox" id="filter-21">
            <feOffset dx="-7" dy="8" in="SourceAlpha" result="shadowOffsetOuter1"></feOffset>
            <feColorMatrix values="0 0 0 0 1   0 0 0 0 1   0 0 0 0 1  0 0 0 0.5 0" type="matrix" in="shadowOffsetOuter1"></feColorMatrix>
        </filter>
        <path d="M7.39724097,3 L70.1967972,3 C74.9134791,3 79.0513443,6.1451319 80.3137352,10.6897394 L80.6776965,12 C81.7271558,15.7780534 79.5151932,19.6915257 75.7371398,20.740985 C75.1183647,20.9128669 74.4791297,21 73.8369257,21 L10.6004984,21 C5.67916257,21 1.41812188,17.5819141 0.350534245,12.7777698 L0.17769651,12 C-0.708357779,8.0127557 1.80565345,4.06216662 5.79289776,3.17611233 C6.31965266,3.05905569 6.8576365,3 7.39724097,3 Z" id="path-22"></path>
        <filter x="-3.7%" y="-16.7%" width="107.4%" height="133.3%" filterUnits="objectBoundingBox" id="filter-23">
            <feOffset dx="0" dy="0" in="SourceAlpha" result="shadowOffsetOuter1"></feOffset>
            <feGaussianBlur stdDeviation="1" in="shadowOffsetOuter1" result="shadowBlurOuter1"></feGaussianBlur>
            <feColorMatrix values="0 0 0 0 0   0 0 0 0 0   0 0 0 0 0  0 0 0 0.111243207 0" type="matrix" in="shadowBlurOuter1"></feColorMatrix>
        </filter>
        <path d="M11.9983766,0 L339.003287,0 C346.324901,-1.34495877e-15 353.00216,5.93534129 353.917362,13.2569558 L356.679228,35.3518822 L3.16040605,35.3518822 L0.398540255,13.2569558 C-0.516661561,5.93534129 4.67676207,1.34495877e-15 11.9983766,0 Z" id="path-24"></path>
        <filter x="-10.0%" y="-77.8%" width="119.9%" height="300.8%" filterUnits="objectBoundingBox" id="filter-25">
            <feOffset dx="0" dy="8" in="SourceAlpha" result="shadowOffsetOuter1"></feOffset>
            <feGaussianBlur stdDeviation="10.5" in="shadowOffsetOuter1" result="shadowBlurOuter1"></feGaussianBlur>
            <feColorMatrix values="0 0 0 0 0   0 0 0 0 0   0 0 0 0 0  0 0 0 0.0810122283 0" type="matrix" in="shadowBlurOuter1"></feColorMatrix>
        </filter>
        <linearGradient x1="83.7997231%" y1="50%" x2="15.3958664%" y2="84.5211383%" id="linearGradient-26">
            <stop stop-color="#FF72A5" offset="0%"></stop>
            <stop stop-color="#FF487A" offset="100%"></stop>
        </linearGradient>
        <linearGradient x1="88.8197543%" y1="9.80061939%" x2="-6.83226673%" y2="100%" id="linearGradient-27">
            <stop stop-color="#9E83F0" offset="0%"></stop>
            <stop stop-color="#78AEF7" offset="100%"></stop>
        </linearGradient>
        <linearGradient x1="80.5449309%" y1="10.526158%" x2="-33.9464714%" y2="136.578196%" id="linearGradient-28">
            <stop stop-color="#C6FB81" offset="0%"></stop>
            <stop stop-color="#21F46A" offset="100%"></stop>
        </linearGradient>
    </defs>
    <g id="Home-Page" stroke="none" stroke-width="1" fill="none" fill-rule="evenodd">
        <g id="Wuilt---Home-Page" transform="translate(0.000000, -3163.000000)">
            <g id="Colors-Section" transform="translate(0.000000, 3059.000000)">
                <g id="Group-27" transform="translate(-155.000000, 104.000000)">
                    <path d="M318.498939,455.602474 C403.336477,498.026139 532.588383,500.822439 601.90156,451.457031 C658.063128,411.458305 670.892025,332.292029 620.3958,251.199275 C507.578422,70.0239118 423.150267,-35.3879803 195.937105,10.8651172 C77.9125363,34.8910223 0.901559508,182.245149 0.901559508,251.199275 C0.901559508,422.267886 164.921091,378.804688 318.498939,455.602474 Z" id="Oval-Copy-3" fill="url(#linearGradient-1)" transform="translate(326.450780, 243.976257) scale(-1, 1) translate(-326.450780, -243.976257) "></path>
                    <g id="Group-17" transform="translate(223.000000, 41.000000)">
                        <path d="M59.7479674,35.3518822 L386.752877,35.3518822 C394.074492,35.3518822 400.603367,41.2872234 401.335529,48.608838 L434.03602,375.613748 C434.768181,382.935362 429.426374,388.870704 422.10476,388.870704 L95.0998496,388.870704 C87.7782351,388.870704 81.2493596,382.935362 80.5171982,375.613748 L47.8167072,48.608838 C47.0845457,41.2872234 52.4263529,35.3518822 59.7479674,35.3518822 Z" id="Rectangle-10-Copy-12" fill-opacity="0.0987601902" fill="#000000" opacity="0.602977808"></path>
                        <g id="Rectangle-10-Copy-27">
                            <use fill="black" fill-opacity="1" filter="url(#filter-3)" xlink:href="#path-2"></use>
                            <use fill="#FFFFFF" fill-rule="evenodd" xlink:href="#path-2"></use>
                        </g>
                        <rect id="Rectangle-6" fill="#EFEFEF" x="185" y="196" width="154" height="8" rx="4"></rect>
                        <rect id="Rectangle-6-Copy" fill="#EFEFEF" x="221" y="212" width="82" height="8" rx="4"></rect>
                        <g id="Palette" transform="translate(157.000000, 244.000000)">
                            <g id="Group-9" transform="translate(12.000000, 0.000000)">
                                <mask id="mask-5" fill="white">
                                    <use xlink:href="#path-4"></use>
                                </mask>
                                <g id="Rectangle">
                                    <use fill="black" fill-opacity="1" filter="url(#filter-6)" xlink:href="#path-4"></use>
                                    <use fill="#FFFFFF" fill-rule="evenodd" xlink:href="#path-4"></use>
                                </g>
                                <path d="M23.296333,64.988347 L25.3184606,64.988347 L29.3322702,72.5677905 L29.3888332,72.5677905 L31.7100809,64.988347 L33.7322086,64.988347 L34.8313788,75 L33.4738665,75 L32.5703113,66.7700818 L30.0659451,75 L29.1609369,75 L24.8777418,66.7700818 L25.7530155,75 L24.3955032,75 L23.296333,64.988347 Z M36.3438733,68.2972831 L37.6165411,68.2972831 L38.3524263,75 L37.0797585,75 L36.3438733,68.2972831 Z M35.7829925,65.8933552 C35.7550473,65.6388203 35.8228978,65.4196409 35.9865459,65.2358101 C36.150194,65.0519794 36.3592823,64.9600655 36.6138171,64.9600655 C36.868352,64.9600655 37.0976226,65.0519794 37.3016359,65.2358101 C37.5056492,65.4196409 37.6216267,65.6388203 37.6495719,65.8933552 C37.677517,66.14789 37.6096665,66.3670695 37.4460184,66.5509002 C37.2823703,66.7347309 37.073282,66.8266448 36.8187472,66.8266448 C36.5642124,66.8266448 36.3349417,66.7347309 36.1309284,66.5509002 C35.9269151,66.3670695 35.8109376,66.14789 35.7829925,65.8933552 Z M39.6386688,68.2972831 L40.9113365,68.2972831 L41.024669,69.3295581 L41.0529505,69.3295581 C41.173883,68.9713239 41.4201558,68.6814414 41.7917762,68.4599018 C42.1633966,68.2383622 42.6084486,68.1275941 43.1269455,68.1275941 C43.4474708,68.1275941 43.7616412,68.1770862 44.069466,68.276072 C44.3772909,68.3750578 44.653354,68.5282477 44.8976637,68.7356465 C45.1419734,68.9430452 45.3479695,69.2093601 45.5156582,69.534599 C45.6833469,69.859838 45.7915123,70.2439912 45.8401575,70.6870704 L46.3136701,75 L45.0410024,75 L44.6063023,71.0405892 C44.5721471,70.7294911 44.5004868,70.4631762 44.3913192,70.2416367 C44.2821517,70.0200971 44.149362,69.8409827 43.9929461,69.7042881 C43.8365303,69.5675934 43.6630459,69.4686091 43.4724877,69.4073322 C43.2819294,69.3460553 43.0876675,69.3154173 42.8896959,69.3154173 C42.6257339,69.3154173 42.3852874,69.3578392 42.1683493,69.4426841 C41.9514111,69.5275291 41.7681912,69.6618649 41.6186839,69.8456956 C41.4691766,70.0295263 41.3628136,70.2628464 41.2995916,70.5456628 C41.2363696,70.8284793 41.2259764,71.1631405 41.2684116,71.5496563 L41.6472217,75 L40.3745539,75 L39.6386688,68.2972831 Z M54.9536701,75 L53.6810024,75 L53.5754323,74.0384288 L53.5471508,74.0384288 C53.3413734,74.396663 53.0348877,74.6747617 52.6276845,74.8727332 C52.2204813,75.0707048 51.790633,75.169689 51.3381266,75.169689 C50.8196298,75.169689 50.3408004,75.0801318 49.9016242,74.9010147 C49.462448,74.7218976 49.076792,74.4720802 48.7446445,74.1515548 C48.412497,73.8310295 48.1430084,73.4586601 47.9361704,73.0344354 C47.7293325,72.6102106 47.5984879,72.148284 47.5436326,71.6486416 C47.4887773,71.1489991 47.5179342,70.6847157 47.6311041,70.2557774 C47.7442741,69.8268391 47.9319985,69.4544697 48.1942831,69.1386579 C48.4565677,68.8228462 48.7876281,68.5753855 49.1874741,68.3962684 C49.5873201,68.2171513 50.0464846,68.1275941 50.5649815,68.1275941 C51.0457695,68.1275941 51.5093952,68.2289352 51.9558725,68.4316203 C52.4023498,68.6343054 52.7578573,68.9100474 53.0224057,69.2588543 L53.0506872,69.2588543 L52.5073121,64.3095908 L53.7799799,64.3095908 L54.9536701,75 Z M51.3632649,73.9818658 C51.7026447,73.9818658 52.0025559,73.9229466 52.2630076,73.8051064 C52.5234593,73.6872662 52.7368278,73.5270059 52.9031194,73.3243208 C53.0694111,73.1216356 53.1886211,72.8765317 53.2607528,72.5890016 C53.3328845,72.3014716 53.35032,71.9880213 53.3130598,71.6486416 C53.2757996,71.3092618 53.1895373,70.9958116 53.0542702,70.7082815 C52.9190032,70.4207514 52.7459738,70.1756475 52.5351769,69.9729624 C52.3243799,69.7702772 52.0758218,69.610017 51.789495,69.4921768 C51.5031681,69.3743366 51.1903195,69.3154173 50.8509398,69.3154173 C50.51156,69.3154173 50.2116488,69.3743366 49.9511971,69.4921768 C49.6907454,69.610017 49.4773769,69.7702772 49.3110852,69.9729624 C49.1447935,70.1756475 49.0255836,70.4207514 48.9534519,70.7082815 C48.8813202,70.9958116 48.8638847,71.3092618 48.9011449,71.6486416 C48.9384051,71.9880213 49.0246674,72.3014716 49.1599344,72.5890016 C49.2952015,72.8765317 49.4682309,73.1216356 49.6790278,73.3243208 C49.8898247,73.5270059 50.1383829,73.6872662 50.4247097,73.8051064 C50.7110365,73.9229466 51.0238851,73.9818658 51.3632649,73.9818658 Z M56.2592539,69.1174468 C56.5812629,68.7874943 56.9688857,68.5400336 57.4221339,68.3750573 C57.8753821,68.210081 58.3376796,68.1275941 58.8090404,68.1275941 C59.2992556,68.1275941 59.7278446,68.1888701 60.0948203,68.3114239 C60.4617959,68.4339777 60.7697908,68.5989515 61.0188141,68.8063502 C61.2678374,69.013749 61.4613015,69.2517826 61.5992121,69.5204583 C61.7371227,69.7891339 61.8221193,70.0695894 61.8542045,70.3618331 L62.2299096,73.7838953 C62.2557847,74.0195756 62.284303,74.2363984 62.3154654,74.4343699 C62.3466277,74.6323414 62.3814681,74.8208829 62.4199876,75 L61.2887274,75 C61.2231856,74.6606202 61.1717853,74.3212456 61.1345251,73.9818658 L61.1062436,73.9818658 C60.8710374,74.4155177 60.5700134,74.7218976 60.2031627,74.9010147 C59.8363119,75.0801318 59.3983583,75.169689 58.8892887,75.169689 C58.5781905,75.169689 58.2765802,75.1272672 57.9844487,75.0424223 C57.6923172,74.9575773 57.4308841,74.8303118 57.2001417,74.6606219 C56.9693992,74.490932 56.7790402,74.2811796 56.6290587,74.0313584 C56.4790773,73.7815372 56.3859753,73.4916547 56.3497501,73.1617021 C56.3021399,72.7280502 56.3589203,72.3651078 56.5200931,72.0728642 C56.6812658,71.7806205 56.9190904,71.5425868 57.233574,71.3587561 C57.5480575,71.1749254 57.9247912,71.0429464 58.3637864,70.9628151 C58.8027816,70.8826837 59.2768069,70.8426187 59.7858766,70.8426187 L60.7191663,70.8426187 L60.6881163,70.5598036 C60.6694862,70.3901137 60.6178616,70.2204264 60.533241,70.0507365 C60.4486204,69.8810466 60.3328175,69.7278567 60.1858289,69.591162 C60.0388403,69.4544674 59.8619641,69.346056 59.6551951,69.2659247 C59.448426,69.1857934 59.2083504,69.1457283 58.9349612,69.1457283 C58.6898536,69.1457283 58.4779751,69.169296 58.2993194,69.2164321 C58.1206637,69.2635682 57.9598019,69.3224874 57.8167289,69.3931915 C57.673656,69.4638956 57.5460196,69.5463825 57.4338159,69.6406547 C57.3216121,69.7349268 57.2136061,69.824484 57.1097946,69.909329 L56.2592539,69.1174468 Z M60.1428752,71.7759083 C59.8412043,71.7759083 59.5342788,71.7924057 59.2220896,71.825401 C58.9099004,71.8583962 58.6293608,71.922029 58.3804624,72.0163011 C58.1315641,72.1105733 57.9339447,72.2425523 57.7875986,72.4122422 C57.6412524,72.5819321 57.5825703,72.7987548 57.6115504,73.0627169 C57.6539856,73.4492327 57.8141401,73.7273314 58.0920186,73.8970213 C58.3698972,74.0667112 58.7303706,74.1515548 59.1734497,74.1515548 C59.5222567,74.1515548 59.8127409,74.0926356 60.0449109,73.9747954 C60.2770809,73.8569552 60.4582309,73.7037653 60.5883663,73.5152209 C60.7185016,73.3266766 60.8038844,73.1169242 60.8445173,72.8859574 C60.8851502,72.6549907 60.8930464,72.4263841 60.8682063,72.2001309 L60.8216313,71.7759083 L60.1428752,71.7759083 Z M63.4799781,68.2972831 L64.7526458,68.2972831 L64.8659784,69.3295581 L64.8942599,69.3295581 C64.9594397,69.150441 65.054711,68.987824 65.1800767,68.8417021 C65.3054423,68.6955803 65.4496322,68.5706715 65.6126506,68.4669722 C65.7756691,68.3632728 65.9575112,68.2807859 66.1581824,68.219509 C66.3588536,68.1582321 66.5628855,68.1275941 66.7702843,68.1275941 C66.977683,68.1275941 67.1693295,68.1558753 67.3452294,68.2124386 L67.4392589,69.5840917 C67.3324545,69.55581 67.2261692,69.5322423 67.1203998,69.5133879 C67.0146304,69.4945335 66.9098976,69.4851064 66.8061983,69.4851064 C66.184002,69.4851064 65.7270821,69.6595073 65.4354247,70.0083142 C65.1437674,70.3571212 65.0383055,70.899178 65.1190359,71.6345008 L65.488531,75 L64.2158632,75 L63.4799781,68.2972831 Z M69.8577406,71.6486416 C69.8950008,71.9880213 69.9812631,72.3014716 70.1165302,72.5890016 C70.2517972,72.8765317 70.4248266,73.1216356 70.6356235,73.3243208 C70.8464205,73.5270059 71.0949786,73.6872662 71.3813054,73.8051064 C71.6676323,73.9229466 71.9804809,73.9818658 72.3198606,73.9818658 C72.6592404,73.9818658 72.9591516,73.9229466 73.2196033,73.8051064 C73.480055,73.6872662 73.6934235,73.5270059 73.8597152,73.3243208 C74.0260069,73.1216356 74.1452168,72.8765317 74.2173485,72.5890016 C74.2894802,72.3014716 74.3069157,71.9880213 74.2696555,71.6486416 C74.2323953,71.3092618 74.146133,70.9958116 74.010866,70.7082815 C73.8755989,70.4207514 73.7025695,70.1756475 73.4917726,69.9729624 C73.2809757,69.7702772 73.0324175,69.610017 72.7460907,69.4921768 C72.4597639,69.3743366 72.1469153,69.3154173 71.8075355,69.3154173 C71.4681558,69.3154173 71.1682445,69.3743366 70.9077928,69.4921768 C70.6473412,69.610017 70.4339727,69.7702772 70.267681,69.9729624 C70.1013893,70.1756475 69.9821794,70.4207514 69.9100476,70.7082815 C69.8379159,70.9958116 69.8204804,71.3092618 69.8577406,71.6486416 Z M68.5002284,71.6486416 C68.4464081,71.1584264 68.488125,70.7012133 68.6253805,70.2769885 C68.762636,69.8527638 68.9739281,69.4803944 69.2592633,69.1598691 C69.5445984,68.8393437 69.8939954,68.5871695 70.3074647,68.4033388 C70.720934,68.2195081 71.1774831,68.1275941 71.6771255,68.1275941 C72.1767679,68.1275941 72.6534993,68.2195081 73.1073338,68.4033388 C73.5611683,68.5871695 73.9659373,68.8393437 74.3216528,69.1598691 C74.6773683,69.4803944 74.9704246,69.8527638 75.2008306,70.2769885 C75.4312365,70.7012133 75.5733475,71.1584264 75.6271678,71.6486416 C75.6809881,72.1388568 75.6395299,72.5984267 75.5027919,73.027365 C75.3660539,73.4563033 75.1547618,73.8286727 74.8689091,74.1444845 C74.5830565,74.4602962 74.2334008,74.7101136 73.8199314,74.8939444 C73.4064621,75.0777751 72.9499131,75.169689 72.4502707,75.169689 C71.9506282,75.169689 71.4738969,75.0777751 71.0200624,74.8939444 C70.5662278,74.7101136 70.1617176,74.4602962 69.8065196,74.1444845 C69.4513216,73.8286727 69.1582653,73.4563033 68.9273418,73.027365 C68.6964184,72.5984267 68.5540486,72.1388568 68.5002284,71.6486416 Z" id="Mindaro" fill="#192230" mask="url(#mask-5)"></path>
                                <polygon id="Rectangle-2" fill="#FF9368" mask="url(#mask-5)" points="-0.837102144 0 72 0 76 50.0001279 1.50974541 50.0001279"></polygon>
                                <polygon id="Rectangle-2-Copy" fill="#FFB668" mask="url(#mask-5)" points="69 0 137 0 141 50.0001279 73 50.0001279"></polygon>
                                <polygon id="Rectangle-2-Copy-3" fill="#FFF0E0" mask="url(#mask-5)" points="137 0 205 0 211 50.0001279 141 50.0001279"></polygon>
                            </g>
                            <g id="Group-20" transform="translate(0.000000, 30.000000)">
                                <g id="Rectangle-2-Copy">
                                    <use fill="black" fill-opacity="1" filter="url(#filter-8)" xlink:href="#path-7"></use>
                                    <use fill="#FFFFFF" fill-rule="evenodd" xlink:href="#path-7"></use>
                                </g>
                                <polyline id="Path-20-Copy" stroke="url(#linearGradient-1)" stroke-width="2.22222222" points="19.2840646 22.2222222 10.9222992 15 17.0049782 7.77777778"></polyline>
                            </g>
                            <g id="Group-9-Copy-6" transform="translate(228.000000, 45.000000) rotate(-180.000000) translate(-228.000000, -45.000000) translate(212.000000, 30.000000)">
                                <g id="Group-19">
                                    <g id="Rectangle-2-Copy">
                                        <use fill="black" fill-opacity="1" filter="url(#filter-10)" xlink:href="#path-9"></use>
                                        <use fill="#FFFFFF" fill-rule="evenodd" xlink:href="#path-9"></use>
                                    </g>
                                    <polyline id="Path-20-Copy" stroke="url(#linearGradient-1)" stroke-width="2.22222222" points="20.172894 22.2222222 11.4604225 15 17.1923955 7.77777778"></polyline>
                                </g>
                            </g>
                        </g>
                        <g id="Palette-Copy" transform="translate(403.000000, 257.000000)">
                            <g id="Group-9">
                                <mask id="mask-12" fill="white">
                                    <use xlink:href="#path-11"></use>
                                </mask>
                                <g id="Rectangle">
                                    <use fill="black" fill-opacity="1" filter="url(#filter-13)" xlink:href="#path-11"></use>
                                    <use fill="#FFFFFF" fill-rule="evenodd" xlink:href="#path-11"></use>
                                </g>
                                <path d="M16.1293283,46.9360284 L17.5871413,46.9360284 L20.9043497,52.4100709 L20.9451277,52.4100709 L22.1950536,46.9360284 L23.6528666,46.9360284 L25.0047328,54.1666667 L24.0260612,54.1666667 L22.9147813,48.2228369 L21.5691876,54.1666667 L20.9167398,54.1666667 L17.3689753,48.2228369 L18.4598662,54.1666667 L17.4811946,54.1666667 L16.1293283,46.9360284 Z M25.7205947,49.3258156 L26.6380994,49.3258156 L27.5431624,54.1666667 L26.6256577,54.1666667 L25.7205947,49.3258156 Z M25.1819097,47.5896454 C25.14754,47.4058147 25.1842079,47.2475184 25.2919145,47.1147518 C25.3996211,46.9819852 25.5452231,46.9156028 25.728725,46.9156028 C25.9122268,46.9156028 26.082651,46.9819852 26.2400027,47.1147518 C26.3973543,47.2475184 26.4932135,47.4058147 26.5275832,47.5896454 C26.5619528,47.7734761 26.5252849,47.9317724 26.4175783,48.064539 C26.3098717,48.1973056 26.1642697,48.2636879 25.9807678,48.2636879 C25.797266,48.2636879 25.6268418,48.1973056 25.4694902,48.064539 C25.3121385,47.9317724 25.2162793,47.7734761 25.1819097,47.5896454 Z M28.0959124,49.3258156 L29.013417,49.3258156 L29.1528044,50.0713475 L29.1731933,50.0713475 C29.2403594,49.8126228 29.4017066,49.6032632 29.6572396,49.4432624 C29.9127726,49.2832616 30.2274344,49.2032624 30.6012344,49.2032624 C30.8323108,49.2032624 31.0615713,49.2390067 31.2890228,49.3104965 C31.5164743,49.3819862 31.7240566,49.4926234 31.9117761,49.6424113 C32.0994956,49.7921993 32.2628858,49.9845378 32.4019517,50.2194326 C32.5410176,50.4543274 32.6404634,50.7317714 32.700292,51.051773 L33.2826638,54.1666667 L32.3651591,54.1666667 L31.8305227,51.3070922 C31.7885154,51.0824102 31.7219719,50.8900717 31.6308903,50.7300709 C31.5398087,50.5700701 31.4340678,50.4407097 31.3136646,50.3419858 C31.1932613,50.2432619 31.06266,50.1717733 30.9218567,50.1275177 C30.7810535,50.0832622 30.6392921,50.0611348 30.4965684,50.0611348 C30.3062702,50.0611348 30.1352956,50.0917727 29.9836394,50.1530496 C29.8319832,50.2143265 29.7074009,50.3113469 29.6098889,50.4441135 C29.5123768,50.5768801 29.4487342,50.745389 29.4189591,50.9496454 C29.3891839,51.1539017 29.4003916,51.3956014 29.4525826,51.6747518 L29.91848,54.1666667 L29.0009753,54.1666667 L28.0959124,49.3258156 Z M39.511501,54.1666667 L38.5939963,54.1666667 L38.4641561,53.4721986 L38.4437671,53.4721986 C38.3154337,53.7309233 38.1100187,53.9317723 37.8275161,54.0747518 C37.5450135,54.2177312 37.2406539,54.2892199 36.9144284,54.2892199 C36.5406284,54.2892199 36.1904214,54.2245397 35.8637972,54.0951773 C35.5371729,53.965815 35.2451822,53.7853912 34.9878164,53.5539007 C34.7304506,53.3224102 34.5153605,53.0534767 34.3425395,52.7470922 C34.1697186,52.4407077 34.0495767,52.107094 33.9821104,51.7462411 C33.914644,51.3853883 33.9097204,51.0500725 33.9673394,50.7402837 C34.0249583,50.4304949 34.1394869,50.1615614 34.3109286,49.9334752 C34.4823703,49.7053889 34.7072138,49.5266673 34.985466,49.397305 C35.2637182,49.2679426 35.5897394,49.2032624 35.9635395,49.2032624 C36.3101541,49.2032624 36.6500587,49.2764532 36.9832635,49.4228369 C37.3164684,49.5692206 37.5881727,49.7683675 37.7983846,50.0202837 L37.8187736,50.0202837 L37.1504781,46.4458156 L38.0679828,46.4458156 L39.511501,54.1666667 Z M36.866177,53.4313475 C37.1108461,53.4313475 37.3237688,53.3887948 37.5049515,53.3036879 C37.6861342,53.2185811 37.8310029,53.1028376 37.9395617,52.9564539 C38.0481206,52.8100702 38.1203665,52.6330507 38.1563015,52.4253901 C38.1922365,52.2177295 38.187291,51.9913487 38.1414648,51.7462411 C38.0956386,51.5011335 38.0159342,51.2747528 37.9023492,51.0670922 C37.7887642,50.8594316 37.650326,50.6824121 37.4870302,50.5360284 C37.3237345,50.3896447 37.1355862,50.2739011 36.9225798,50.1887943 C36.7095733,50.1036875 36.480739,50.0611348 36.2360698,50.0611348 C35.9914007,50.0611348 35.778478,50.1036875 35.5972953,50.1887943 C35.4161126,50.2739011 35.271244,50.3896447 35.1626851,50.5360284 C35.0541262,50.6824121 34.9818803,50.8594316 34.9459453,51.0670922 C34.9100103,51.2747528 34.9149558,51.5011335 34.960782,51.7462411 C35.0066082,51.9913487 35.0863126,52.2177295 35.1998976,52.4253901 C35.3134826,52.6330507 35.4519209,52.8100702 35.6152166,52.9564539 C35.7785123,53.1028376 35.9666606,53.2185811 36.179667,53.3036879 C36.3926735,53.3887948 36.6215078,53.4313475 36.866177,53.4313475 Z M40.1240246,49.918156 C40.3377332,49.679857 40.6033543,49.5011353 40.9208959,49.3819858 C41.2384375,49.2628363 41.5671125,49.2032624 41.9069308,49.2032624 C42.2603418,49.2032624 42.5727486,49.2475173 42.8441606,49.3360284 C43.1155726,49.4245394 43.346834,49.5436872 43.5379517,49.6934752 C43.7290693,49.8432632 43.8818445,50.0151763 43.9962818,50.2092199 C44.110719,50.4032634 44.1876672,50.6058145 44.2271287,50.8168794 L44.6892073,53.2883688 C44.721031,53.4585824 44.7537066,53.6151766 44.7872349,53.758156 C44.8207632,53.9011355 44.8564162,54.0373043 44.894195,54.1666667 L44.0786353,54.1666667 C44.01242,53.9215591 43.9564001,53.6764551 43.9105739,53.4313475 L43.8901849,53.4313475 C43.7448497,53.7445406 43.5449526,53.965815 43.2904877,54.0951773 C43.0360228,54.2245397 42.7252931,54.2892199 42.3582894,54.2892199 C42.1340094,54.2892199 41.9141989,54.2585819 41.6988514,54.197305 C41.4835039,54.1360281 41.2879175,54.0441141 41.1120861,53.9215603 C40.9362548,53.7990065 40.7872985,53.6475186 40.6652125,53.4670922 C40.5431266,53.2866658 40.4598083,53.0773062 40.415255,52.8390071 C40.3566993,52.525814 40.3773532,52.263689 40.4772172,52.0526241 C40.5770812,51.8415592 40.7352351,51.6696461 40.9516835,51.5368794 C41.1681319,51.4041128 41.4323558,51.3087946 41.7443631,51.250922 C42.0563703,51.1930494 42.3958707,51.1641135 42.7628744,51.1641135 L43.4357111,51.1641135 L43.3975228,50.9598582 C43.3746097,50.8373044 43.3279101,50.7147524 43.2574224,50.5921986 C43.1869347,50.4696448 43.0948889,50.3590076 42.981282,50.2602837 C42.8676751,50.1615598 42.7341018,50.0832627 42.580558,50.0253901 C42.4270143,49.9675174 42.2516978,49.9385816 42.0546032,49.9385816 C41.8778977,49.9385816 41.7264651,49.9556027 41.6003007,49.9896454 C41.4741363,50.0236881 41.3614585,50.0662409 41.2622638,50.117305 C41.1630691,50.168369 41.0756614,50.2279429 41.0000382,50.2960284 C40.9244149,50.3641138 40.8515545,50.428794 40.7814546,50.4900709 L40.1240246,49.918156 Z M43.0723968,51.838156 C42.8549131,51.838156 42.6345631,51.8500708 42.4113402,51.8739007 C42.1881173,51.8977306 41.9894236,51.9436876 41.815253,52.011773 C41.6410825,52.0798585 41.5059876,52.1751767 41.4099643,52.2977305 C41.3139411,52.4202843 41.2837512,52.5768785 41.3193938,52.7675177 C41.3715847,53.0466681 41.5025848,53.2475171 41.7123979,53.3700709 C41.9222111,53.4926247 42.1868283,53.5539007 42.5062574,53.5539007 C42.7577229,53.5539007 42.9638494,53.5113479 43.124643,53.4262411 C43.2854366,53.3411343 43.407473,53.2304971 43.4907558,53.0943262 C43.5740386,52.9581553 43.6238729,52.8066675 43.6402602,52.6398582 C43.6566475,52.4730488 43.6495658,52.3079441 43.619015,52.144539 L43.5617326,51.838156 L43.0723968,51.838156 Z M45.283833,49.3258156 L46.2013377,49.3258156 L46.340725,50.0713475 L46.361114,50.0713475 C46.3980953,49.9419852 46.4576924,49.8245395 46.5399071,49.7190071 C46.6221218,49.6134746 46.7190929,49.5232628 46.8308232,49.4483688 C46.9425535,49.3734748 47.0690397,49.3139009 47.2102855,49.2696454 C47.3515314,49.2253898 47.4969121,49.2032624 47.6464322,49.2032624 C47.7959522,49.2032624 47.9356962,49.2236877 48.0656685,49.264539 L48.2101038,50.2551773 C48.131525,50.2347517 48.0535838,50.2177306 47.9762778,50.2041135 C47.8989719,50.1904964 47.8229401,50.1836879 47.7481801,50.1836879 C47.29962,50.1836879 46.979958,50.3096441 46.7891844,50.5615603 C46.5984107,50.8134764 46.5526697,51.2049619 46.6519598,51.7360284 L47.1064007,54.1666667 L46.188896,54.1666667 L45.283833,49.3258156 Z M50.0690254,51.7462411 C50.1148516,51.9913487 50.194556,52.2177295 50.308141,52.4253901 C50.421726,52.6330507 50.5601643,52.8100702 50.72346,52.9564539 C50.8867557,53.1028376 51.074904,53.2185811 51.2879105,53.3036879 C51.5009169,53.3887948 51.7297513,53.4313475 51.9744204,53.4313475 C52.2190896,53.4313475 52.4320123,53.3887948 52.613195,53.3036879 C52.7943777,53.2185811 52.9392463,53.1028376 53.0478052,52.9564539 C53.156364,52.8100702 53.2286099,52.6330507 53.2645449,52.4253901 C53.30048,52.2177295 53.2955345,51.9913487 53.2497083,51.7462411 C53.2038821,51.5011335 53.1241777,51.2747528 53.0105927,51.0670922 C52.8970077,50.8594316 52.7585694,50.6824121 52.5952737,50.5360284 C52.431978,50.3896447 52.2438297,50.2739011 52.0308232,50.1887943 C51.8178168,50.1036875 51.5889824,50.0611348 51.3443133,50.0611348 C51.0996441,50.0611348 50.8867214,50.1036875 50.7055387,50.1887943 C50.524356,50.2739011 50.3794874,50.3896447 50.2709285,50.5360284 C50.1623697,50.6824121 50.0901238,50.8594316 50.0541888,51.0670922 C50.0182537,51.2747528 50.0231992,51.5011335 50.0690254,51.7462411 Z M49.0903538,51.7462411 C49.0241604,51.3921968 49.0286868,51.0619873 49.1039332,50.7556028 C49.1791795,50.4492183 49.3106988,50.1802848 49.4984949,49.9487943 C49.686291,49.7173038 49.9240906,49.535178 50.2119008,49.4024113 C50.4997111,49.2696447 50.823715,49.2032624 51.1839224,49.2032624 C51.5441297,49.2032624 51.8929558,49.2696447 52.2304111,49.4024113 C52.5678664,49.535178 52.8737678,49.7173038 53.1481245,49.9487943 C53.4224812,50.1802848 53.654562,50.4492183 53.8443739,50.7556028 C54.0341858,51.0619873 54.1621865,51.3921968 54.2283799,51.7462411 C54.2945733,52.1002855 54.2903651,52.432197 54.2157552,52.7419858 C54.1411454,53.0517746 54.0096261,53.3207081 53.8211935,53.5487943 C53.632761,53.7768806 53.3946431,53.9573043 53.1068329,54.0900709 C52.8190226,54.2228375 52.4950187,54.2892199 52.1348113,54.2892199 C51.774604,54.2892199 51.4257779,54.2228375 51.0883226,54.0900709 C50.7508673,53.9573043 50.4452841,53.7768806 50.1715639,53.5487943 C49.8978436,53.3207081 49.6657628,53.0517746 49.4753145,52.7419858 C49.2848661,52.432197 49.1565472,52.1002855 49.0903538,51.7462411 Z" id="Mindaro" fill="#192230" mask="url(#mask-12)"></path>
                                <polygon id="Rectangle-2" fill="#FF6898" mask="url(#mask-12)" points="-1.32442248 0 51.1860465 0 54.0697674 36.1112035 0.367490878 36.1112035"></polygon>
                                <polygon id="Rectangle-2-Copy" fill="#FEA0BE" mask="url(#mask-12)" points="49.0232558 0 98.0465116 0 100.930233 36.1112035 51.9069767 36.1112035"></polygon>
                                <polygon id="Rectangle-2-Copy-6" fill="#FFECF2" mask="url(#mask-12)" points="98.0465116 0 147.069767 0 151.395349 36.1112035 100.930233 36.1112035"></polygon>
                            </g>
                        </g>
                        <g id="Palette-Copy-2" transform="translate(0.000000, 257.000000)">
                            <g id="Group-9">
                                <mask id="mask-15" fill="white">
                                    <use xlink:href="#path-14"></use>
                                </mask>
                                <g id="Rectangle">
                                    <use fill="black" fill-opacity="1" filter="url(#filter-16)" xlink:href="#path-14"></use>
                                    <use fill="#FFFFFF" fill-rule="evenodd" xlink:href="#path-14"></use>
                                </g>
                                <path d="M16.1293283,46.9360284 L17.5871413,46.9360284 L20.9043497,52.4100709 L20.9451277,52.4100709 L22.1950536,46.9360284 L23.6528666,46.9360284 L25.0047328,54.1666667 L24.0260612,54.1666667 L22.9147813,48.2228369 L21.5691876,54.1666667 L20.9167398,54.1666667 L17.3689753,48.2228369 L18.4598662,54.1666667 L17.4811946,54.1666667 L16.1293283,46.9360284 Z M25.7205947,49.3258156 L26.6380994,49.3258156 L27.5431624,54.1666667 L26.6256577,54.1666667 L25.7205947,49.3258156 Z M25.1819097,47.5896454 C25.14754,47.4058147 25.1842079,47.2475184 25.2919145,47.1147518 C25.3996211,46.9819852 25.5452231,46.9156028 25.728725,46.9156028 C25.9122268,46.9156028 26.082651,46.9819852 26.2400027,47.1147518 C26.3973543,47.2475184 26.4932135,47.4058147 26.5275832,47.5896454 C26.5619528,47.7734761 26.5252849,47.9317724 26.4175783,48.064539 C26.3098717,48.1973056 26.1642697,48.2636879 25.9807678,48.2636879 C25.797266,48.2636879 25.6268418,48.1973056 25.4694902,48.064539 C25.3121385,47.9317724 25.2162793,47.7734761 25.1819097,47.5896454 Z M28.0959124,49.3258156 L29.013417,49.3258156 L29.1528044,50.0713475 L29.1731933,50.0713475 C29.2403594,49.8126228 29.4017066,49.6032632 29.6572396,49.4432624 C29.9127726,49.2832616 30.2274344,49.2032624 30.6012344,49.2032624 C30.8323108,49.2032624 31.0615713,49.2390067 31.2890228,49.3104965 C31.5164743,49.3819862 31.7240566,49.4926234 31.9117761,49.6424113 C32.0994956,49.7921993 32.2628858,49.9845378 32.4019517,50.2194326 C32.5410176,50.4543274 32.6404634,50.7317714 32.700292,51.051773 L33.2826638,54.1666667 L32.3651591,54.1666667 L31.8305227,51.3070922 C31.7885154,51.0824102 31.7219719,50.8900717 31.6308903,50.7300709 C31.5398087,50.5700701 31.4340678,50.4407097 31.3136646,50.3419858 C31.1932613,50.2432619 31.06266,50.1717733 30.9218567,50.1275177 C30.7810535,50.0832622 30.6392921,50.0611348 30.4965684,50.0611348 C30.3062702,50.0611348 30.1352956,50.0917727 29.9836394,50.1530496 C29.8319832,50.2143265 29.7074009,50.3113469 29.6098889,50.4441135 C29.5123768,50.5768801 29.4487342,50.745389 29.4189591,50.9496454 C29.3891839,51.1539017 29.4003916,51.3956014 29.4525826,51.6747518 L29.91848,54.1666667 L29.0009753,54.1666667 L28.0959124,49.3258156 Z M39.511501,54.1666667 L38.5939963,54.1666667 L38.4641561,53.4721986 L38.4437671,53.4721986 C38.3154337,53.7309233 38.1100187,53.9317723 37.8275161,54.0747518 C37.5450135,54.2177312 37.2406539,54.2892199 36.9144284,54.2892199 C36.5406284,54.2892199 36.1904214,54.2245397 35.8637972,54.0951773 C35.5371729,53.965815 35.2451822,53.7853912 34.9878164,53.5539007 C34.7304506,53.3224102 34.5153605,53.0534767 34.3425395,52.7470922 C34.1697186,52.4407077 34.0495767,52.107094 33.9821104,51.7462411 C33.914644,51.3853883 33.9097204,51.0500725 33.9673394,50.7402837 C34.0249583,50.4304949 34.1394869,50.1615614 34.3109286,49.9334752 C34.4823703,49.7053889 34.7072138,49.5266673 34.985466,49.397305 C35.2637182,49.2679426 35.5897394,49.2032624 35.9635395,49.2032624 C36.3101541,49.2032624 36.6500587,49.2764532 36.9832635,49.4228369 C37.3164684,49.5692206 37.5881727,49.7683675 37.7983846,50.0202837 L37.8187736,50.0202837 L37.1504781,46.4458156 L38.0679828,46.4458156 L39.511501,54.1666667 Z M36.866177,53.4313475 C37.1108461,53.4313475 37.3237688,53.3887948 37.5049515,53.3036879 C37.6861342,53.2185811 37.8310029,53.1028376 37.9395617,52.9564539 C38.0481206,52.8100702 38.1203665,52.6330507 38.1563015,52.4253901 C38.1922365,52.2177295 38.187291,51.9913487 38.1414648,51.7462411 C38.0956386,51.5011335 38.0159342,51.2747528 37.9023492,51.0670922 C37.7887642,50.8594316 37.650326,50.6824121 37.4870302,50.5360284 C37.3237345,50.3896447 37.1355862,50.2739011 36.9225798,50.1887943 C36.7095733,50.1036875 36.480739,50.0611348 36.2360698,50.0611348 C35.9914007,50.0611348 35.778478,50.1036875 35.5972953,50.1887943 C35.4161126,50.2739011 35.271244,50.3896447 35.1626851,50.5360284 C35.0541262,50.6824121 34.9818803,50.8594316 34.9459453,51.0670922 C34.9100103,51.2747528 34.9149558,51.5011335 34.960782,51.7462411 C35.0066082,51.9913487 35.0863126,52.2177295 35.1998976,52.4253901 C35.3134826,52.6330507 35.4519209,52.8100702 35.6152166,52.9564539 C35.7785123,53.1028376 35.9666606,53.2185811 36.179667,53.3036879 C36.3926735,53.3887948 36.6215078,53.4313475 36.866177,53.4313475 Z M40.1240246,49.918156 C40.3377332,49.679857 40.6033543,49.5011353 40.9208959,49.3819858 C41.2384375,49.2628363 41.5671125,49.2032624 41.9069308,49.2032624 C42.2603418,49.2032624 42.5727486,49.2475173 42.8441606,49.3360284 C43.1155726,49.4245394 43.346834,49.5436872 43.5379517,49.6934752 C43.7290693,49.8432632 43.8818445,50.0151763 43.9962818,50.2092199 C44.110719,50.4032634 44.1876672,50.6058145 44.2271287,50.8168794 L44.6892073,53.2883688 C44.721031,53.4585824 44.7537066,53.6151766 44.7872349,53.758156 C44.8207632,53.9011355 44.8564162,54.0373043 44.894195,54.1666667 L44.0786353,54.1666667 C44.01242,53.9215591 43.9564001,53.6764551 43.9105739,53.4313475 L43.8901849,53.4313475 C43.7448497,53.7445406 43.5449526,53.965815 43.2904877,54.0951773 C43.0360228,54.2245397 42.7252931,54.2892199 42.3582894,54.2892199 C42.1340094,54.2892199 41.9141989,54.2585819 41.6988514,54.197305 C41.4835039,54.1360281 41.2879175,54.0441141 41.1120861,53.9215603 C40.9362548,53.7990065 40.7872985,53.6475186 40.6652125,53.4670922 C40.5431266,53.2866658 40.4598083,53.0773062 40.415255,52.8390071 C40.3566993,52.525814 40.3773532,52.263689 40.4772172,52.0526241 C40.5770812,51.8415592 40.7352351,51.6696461 40.9516835,51.5368794 C41.1681319,51.4041128 41.4323558,51.3087946 41.7443631,51.250922 C42.0563703,51.1930494 42.3958707,51.1641135 42.7628744,51.1641135 L43.4357111,51.1641135 L43.3975228,50.9598582 C43.3746097,50.8373044 43.3279101,50.7147524 43.2574224,50.5921986 C43.1869347,50.4696448 43.0948889,50.3590076 42.981282,50.2602837 C42.8676751,50.1615598 42.7341018,50.0832627 42.580558,50.0253901 C42.4270143,49.9675174 42.2516978,49.9385816 42.0546032,49.9385816 C41.8778977,49.9385816 41.7264651,49.9556027 41.6003007,49.9896454 C41.4741363,50.0236881 41.3614585,50.0662409 41.2622638,50.117305 C41.1630691,50.168369 41.0756614,50.2279429 41.0000382,50.2960284 C40.9244149,50.3641138 40.8515545,50.428794 40.7814546,50.4900709 L40.1240246,49.918156 Z M43.0723968,51.838156 C42.8549131,51.838156 42.6345631,51.8500708 42.4113402,51.8739007 C42.1881173,51.8977306 41.9894236,51.9436876 41.815253,52.011773 C41.6410825,52.0798585 41.5059876,52.1751767 41.4099643,52.2977305 C41.3139411,52.4202843 41.2837512,52.5768785 41.3193938,52.7675177 C41.3715847,53.0466681 41.5025848,53.2475171 41.7123979,53.3700709 C41.9222111,53.4926247 42.1868283,53.5539007 42.5062574,53.5539007 C42.7577229,53.5539007 42.9638494,53.5113479 43.124643,53.4262411 C43.2854366,53.3411343 43.407473,53.2304971 43.4907558,53.0943262 C43.5740386,52.9581553 43.6238729,52.8066675 43.6402602,52.6398582 C43.6566475,52.4730488 43.6495658,52.3079441 43.619015,52.144539 L43.5617326,51.838156 L43.0723968,51.838156 Z M45.283833,49.3258156 L46.2013377,49.3258156 L46.340725,50.0713475 L46.361114,50.0713475 C46.3980953,49.9419852 46.4576924,49.8245395 46.5399071,49.7190071 C46.6221218,49.6134746 46.7190929,49.5232628 46.8308232,49.4483688 C46.9425535,49.3734748 47.0690397,49.3139009 47.2102855,49.2696454 C47.3515314,49.2253898 47.4969121,49.2032624 47.6464322,49.2032624 C47.7959522,49.2032624 47.9356962,49.2236877 48.0656685,49.264539 L48.2101038,50.2551773 C48.131525,50.2347517 48.0535838,50.2177306 47.9762778,50.2041135 C47.8989719,50.1904964 47.8229401,50.1836879 47.7481801,50.1836879 C47.29962,50.1836879 46.979958,50.3096441 46.7891844,50.5615603 C46.5984107,50.8134764 46.5526697,51.2049619 46.6519598,51.7360284 L47.1064007,54.1666667 L46.188896,54.1666667 L45.283833,49.3258156 Z M50.0690254,51.7462411 C50.1148516,51.9913487 50.194556,52.2177295 50.308141,52.4253901 C50.421726,52.6330507 50.5601643,52.8100702 50.72346,52.9564539 C50.8867557,53.1028376 51.074904,53.2185811 51.2879105,53.3036879 C51.5009169,53.3887948 51.7297513,53.4313475 51.9744204,53.4313475 C52.2190896,53.4313475 52.4320123,53.3887948 52.613195,53.3036879 C52.7943777,53.2185811 52.9392463,53.1028376 53.0478052,52.9564539 C53.156364,52.8100702 53.2286099,52.6330507 53.2645449,52.4253901 C53.30048,52.2177295 53.2955345,51.9913487 53.2497083,51.7462411 C53.2038821,51.5011335 53.1241777,51.2747528 53.0105927,51.0670922 C52.8970077,50.8594316 52.7585694,50.6824121 52.5952737,50.5360284 C52.431978,50.3896447 52.2438297,50.2739011 52.0308232,50.1887943 C51.8178168,50.1036875 51.5889824,50.0611348 51.3443133,50.0611348 C51.0996441,50.0611348 50.8867214,50.1036875 50.7055387,50.1887943 C50.524356,50.2739011 50.3794874,50.3896447 50.2709285,50.5360284 C50.1623697,50.6824121 50.0901238,50.8594316 50.0541888,51.0670922 C50.0182537,51.2747528 50.0231992,51.5011335 50.0690254,51.7462411 Z M49.0903538,51.7462411 C49.0241604,51.3921968 49.0286868,51.0619873 49.1039332,50.7556028 C49.1791795,50.4492183 49.3106988,50.1802848 49.4984949,49.9487943 C49.686291,49.7173038 49.9240906,49.535178 50.2119008,49.4024113 C50.4997111,49.2696447 50.823715,49.2032624 51.1839224,49.2032624 C51.5441297,49.2032624 51.8929558,49.2696447 52.2304111,49.4024113 C52.5678664,49.535178 52.8737678,49.7173038 53.1481245,49.9487943 C53.4224812,50.1802848 53.654562,50.4492183 53.8443739,50.7556028 C54.0341858,51.0619873 54.1621865,51.3921968 54.2283799,51.7462411 C54.2945733,52.1002855 54.2903651,52.432197 54.2157552,52.7419858 C54.1411454,53.0517746 54.0096261,53.3207081 53.8211935,53.5487943 C53.632761,53.7768806 53.3946431,53.9573043 53.1068329,54.0900709 C52.8190226,54.2228375 52.4950187,54.2892199 52.1348113,54.2892199 C51.774604,54.2892199 51.4257779,54.2228375 51.0883226,54.0900709 C50.7508673,53.9573043 50.4452841,53.7768806 50.1715639,53.5487943 C49.8978436,53.3207081 49.6657628,53.0517746 49.4753145,52.7419858 C49.2848661,52.432197 49.1565472,52.1002855 49.0903538,51.7462411 Z" id="Mindaro" fill="#192230" mask="url(#mask-15)"></path>
                                <polygon id="Rectangle-2" fill="#6898FF" mask="url(#mask-15)" points="-1.32442248 0 51.1860465 0 54.0697674 36.1112035 0.367490878 36.1112035"></polygon>
                                <polygon id="Rectangle-2-Copy-2" fill="#8BB0FF" mask="url(#mask-15)" points="49.0232558 0 98.0465116 0 100.930233 36.1112035 51.9069767 36.1112035"></polygon>
                                <polygon id="Rectangle-2-Copy-5" fill="#E7EEFF" mask="url(#mask-15)" points="98.0465116 0 147.069767 0 151.395349 36.1112035 100.930233 36.1112035"></polygon>
                            </g>
                        </g>
                        <g id="Group-16" transform="translate(83.000000, 52.000000)">
                            <g id="Rectangle">
                                <use fill="black" fill-opacity="1" filter="url(#filter-19)" xlink:href="#path-18"></use>
                                <use fill="url(#linearGradient-17)" fill-rule="evenodd" xlink:href="#path-18"></use>
                            </g>
                            <path d="M35.2720019,47 L125.694913,47 C127.081439,47 128.322528,47.8600756 128.80937,49.1583199 L129.5,51 C130.0741,52.5309344 129.298433,54.2374022 127.767499,54.8115026 C127.435103,54.9361511 127.082997,55 126.727998,55 L36.3050867,55 C34.9185611,55 33.6774717,54.1399244 33.19063,52.8416801 L32.5,51 C31.9258996,49.4690656 32.7015668,47.7625978 34.2325012,47.1884974 C34.5648973,47.0638489 34.9170026,47 35.2720019,47 Z" id="Rectangle-10-Copy-41" fill="#FFFFFF" opacity="0.699999988"></path>
                            <path d="M35.1231056,29 L173.402949,29 C174.929254,29 176.259694,30.0387764 176.629877,31.5195092 L177,33 C177.431211,34.7248436 176.382514,36.4726711 174.657671,36.903882 C174.40232,36.9677197 174.140104,37 173.876894,37 L35.5970506,37 C34.0707462,37 32.7403059,35.9612236 32.3701227,34.4804908 L32,33 C31.5687891,31.2751564 32.6174856,29.5273289 34.3423292,29.096118 C34.59768,29.0322803 34.8598961,29 35.1231056,29 Z" id="Rectangle-10-Copy-42" fill="#FFFFFF" opacity="0.699999988"></path>
                            <g id="Picture" transform="translate(239.000000, 24.000000)">
                                <g id="Rectangle-11-Copy-10">
                                    <use fill="black" fill-opacity="1" filter="url(#filter-21)" xlink:href="#path-20"></use>
                                    <use fill="#FFFFFF" fill-rule="evenodd" xlink:href="#path-20"></use>
                                </g>
                                <polygon id="Path-12-Copy" fill="url(#linearGradient-17)" points="43.4590309 44 72.4590309 44 56.1142144 28"></polygon>
                                <polygon id="Path-12" fill="url(#linearGradient-17)" points="20.4590309 44 57.4590309 44 36.6530103 24"></polygon>
                                <path d="M67.9224082,22 C70.1315472,22 71.7159201,20.209139 71.4612041,18 C71.2064881,15.790861 69.209139,14 67,14 C64.790861,14 63.2064881,15.790861 63.4612041,18 C63.7159201,20.209139 65.7132692,22 67.9224082,22 Z" id="Oval-2-Copy-4" fill="url(#linearGradient-17)"></path>
                            </g>
                            <g id="button" transform="translate(31.000000, 74.000000)">
                                <g id="Rectangle-3">
                                    <use fill="black" fill-opacity="1" filter="url(#filter-23)" xlink:href="#path-22"></use>
                                    <use fill="#FFFFFF" fill-rule="evenodd" xlink:href="#path-22"></use>
                                </g>
                            </g>
                        </g>
                        <g id="Group-34" transform="translate(83.101473, 0.000000)">
                            <g id="Rectangle-10">
                                <use fill="black" fill-opacity="1" filter="url(#filter-25)" xlink:href="#path-24"></use>
                                <use fill="#FFFFFF" fill-rule="evenodd" xlink:href="#path-24"></use>
                            </g>
                            <g id="Group-18" transform="translate(29.165303, 11.489362)">
                                <circle id="Oval-4" fill="url(#linearGradient-26)" cx="6.18657938" cy="6.18657938" r="6.18657938"></circle>
                                <circle id="Oval-4-Copy" fill="url(#linearGradient-27)" cx="27.3977087" cy="6.18657938" r="6.18657938"></circle>
                                <circle id="Oval-4-Copy-2" fill="url(#linearGradient-28)" cx="48.608838" cy="6.18657938" r="6.18657938"></circle>
                            </g>
                        </g>
                    </g>
                </g>
            </g>
        </g>
    </g>
</svg>